<?xml version="1.0" encoding="iso-8859-1"?>
<!-- Uploaded to: SVG Repo, www.svgrepo.com, Generator: SVG Repo Mixer Tools -->
<!DOCTYPE svg PUBLIC "-//W3C//DTD SVG 1.1//EN" "http://www.w3.org/Graphics/SVG/1.1/DTD/svg11.dtd">
<svg fill="#000000" version="1.1" id="Capa_1" xmlns="http://www.w3.org/2000/svg" xmlns:xlink="http://www.w3.org/1999/xlink" 
	 width="800px" height="800px" viewBox="0 0 126.434 126.434"
	 xml:space="preserve">
<g>
	<g>
		<g>
			<path d="M26.15,125.986v-14.615c-10.303-0.465-20.299-3.234-26.15-6.61l4.613-18.009c6.465,3.547,15.532,6.775,25.545,6.775
				c8.769,0,14.769-3.393,14.769-9.537c0-5.85-4.924-9.543-16.314-13.391C12.156,65.067,0.929,57.373,0.929,42.446
				c0-13.538,9.532-24.151,25.996-27.381V0.448h15.077v13.543c10.312,0.46,17.227,2.613,22.306,5.073l-4.464,17.382
				c-3.994-1.683-11.072-5.223-22.157-5.223c-9.995,0-13.223,4.305-13.223,8.613c0,5.075,5.385,8.304,18.457,13.234
				c18.308,6.454,25.69,14.914,25.69,28.764c0,13.686-9.688,25.386-27.381,28.459v15.693H26.15z"/>
		</g>
		<polygon points="98.922,72.777 74.217,72.777 74.217,53.669 98.922,53.669 98.922,44.498 126.434,63.217 98.922,81.942 		"/>
	</g>
</g>
</svg>